<svg width="497" height="192" viewBox="0 0 497 192" fill="none" xmlns="http://www.w3.org/2000/svg">
<path d="M249.652 8L9 52.4399V133.723L253 185L497 130.305V52.4399L249.652 8Z" fill="#D3E0E8"/>
<path fill-rule="evenodd" clip-rule="evenodd" d="M35.9781 69.8182H102.914V84.996H82.8334V121.423H56.059V84.996H35.9781V69.8182ZM176.544 69.8182H109.608V121.423H176.544V69.8182ZM156.463 84.996H129.689V106.245H156.463V84.996ZM183.237 69.8182H250.173V121.423L233.439 121.423V106.245H199.971V121.423L183.237 121.423V69.8182ZM250.173 101.692V97.1383V92.585L245.153 97.1383L250.173 101.692ZM250.173 74.3715V69.8182H245.153L250.173 74.3715ZM199.971 84.996H233.439V94.1028H199.971V84.996ZM256.867 69.8182H323.803V88.0316H310.416V84.996H276.948V89.5494V91.0672V100.174V102.451V106.245H310.416V100.174H286.988V91.0672H308.743H310.416H323.803V121.423H256.867V69.8182ZM330.497 69.8182H397.433V121.423H330.497V69.8182ZM404.126 69.8182H471.062L471.062 81.9605H430.901V91.0672H467.716V100.174L430.901 100.174V109.281H471.062L471.062 121.423H404.126V69.8182ZM347.231 106.245V69.8182H380.699V106.245H347.231Z" fill="#252527"/>
<path fill-rule="evenodd" clip-rule="evenodd" d="M247.663 0L0 45.5336V142.672L247.663 192L495.327 142.672V45.5336L247.663 0ZM247.663 11.7628L12.6276 63.747V124.458L247.663 180.237L482.699 124.458V63.747L247.663 11.7628Z" fill="#040507"/>
</svg>
